<?xml version="1.0" encoding="utf-8"?>
<!-- Generator: Adobe Illustrator 16.0.0, SVG Export Plug-In . SVG Version: 6.00 Build 0)  -->
<!DOCTYPE svg PUBLIC "-//W3C//DTD SVG 1.1//EN" "http://www.w3.org/Graphics/SVG/1.1/DTD/svg11.dtd">
<svg version="1.1" id="Layer_1" xmlns:v="https://vecta.io/nano"
	 xmlns="http://www.w3.org/2000/svg" xmlns:xlink="http://www.w3.org/1999/xlink" x="0px" y="0px" width="153.802px"
	 height="89.083px" viewBox="36.816 -28.553 153.802 89.083" enable-background="new 36.816 -28.553 153.802 89.083"
	 xml:space="preserve">
<path fill="#C9AE62" d="M137.701-7.287v-12.696h-6.046h-6.648l-8.571-8.57l-2.717,2.717l-2.717-2.717l-8.57,8.57h-5.647h-6.048
	v11.694L82.068,0.38l8.668,8.668v11.887h6.047h5.84l8.378,8.379l2.717-2.719l2.717,2.719l8.378-8.379h6.841h6.046V8.046l7.667-7.667
	L137.701-7.287z M90.736,2.312l-1.955-1.956l1.955-1.955V2.312z M90.736-2.855L87.502,0.38l3.234,3.234v4.129l-7.388-7.387
	l7.388-7.388V-2.855z M96.783,20.011h-5.159V9.935l5.159,5.16V20.011z M96.783,13.79L91.624,8.63V4.501l5.159,5.159V13.79z
	 M96.783,8.359l-5.159-5.16v-5.686l5.159-5.16V8.359z M96.783-8.902l-5.159,5.16v-4.177l5.159-5.16V-8.902z M96.783-14.336
	l-5.159,5.16v-9.898h5.159V-14.336z M116.42-27.283l7.3,7.3h-4.147l-5.227-5.226L116.42-27.283z M118.288-19.983h-9.168l4.583-4.584
	L118.288-19.983z M110.986-27.283l2.089,2.089l-5.211,5.211h-4.178L110.986-27.283z M97.672-19.074h3.852l-3.852,3.852V-19.074z
	 M97.672-13.967l5.106-5.107h4.179l-9.285,9.285V-13.967z M97.672,20.011v-4.029l4.029,4.029H97.672z M97.672,14.677v-4.129
	l9.463,9.463h-4.129L97.672,14.677z M111.001,28.007l-7.073-7.071h4.129l5.008,5.008L111.001,28.007z M113.717,25.29l-4.356-4.354
	h8.712L113.717,25.29z M116.432,28.007l-2.063-2.063l5.011-5.01h4.126L116.432,28.007z M130.73,20.011h-4.994l4.994-4.994V20.011z
	 M130.73,13.71l-6.302,6.301h-4.125l10.428-10.426L130.73,13.71L130.73,13.71z M130.73,8.277l-11.735,11.734h-10.558L97.671,9.245
	V-8.533l10.54-10.541h10.984l11.534,11.535L130.73,8.277L130.73,8.277z M130.73-8.825l-10.249-10.249h4.147l6.102,6.102V-8.825z
	 M130.73-14.259l-4.815-4.815h4.815V-14.259z M136.777,20.011h-5.123v-5.918l5.123-5.123V20.011z M136.777,7.661l-5.123,5.123V8.659
	l5.123-5.123V7.661z M136.777,2.23l-5.123,5.123V-6.614l5.123,5.123V2.23z M136.777-2.779l-5.123-5.122v-4.147l5.123,5.123V-2.779z
	 M136.777-8.211l-5.123-5.123v-5.74h5.123V-8.211z M137.701-0.568l0.938,0.937l-0.938,0.938V-0.568z M137.701,2.614l2.234-2.234
	l-2.234-2.234V-6l6.37,6.37l-6.37,6.37V2.614z"/>
<g>
	<path fill="#C9AE62" d="M88.937,54.967c0.037,0.129,0.064,0.272,0.083,0.435c0.02,0.16,0.029,0.353,0.029,0.57
		c0,0.729-0.11,1.383-0.327,1.961c-0.218,0.578-0.523,1.072-0.915,1.473c-0.392,0.402-0.859,0.713-1.397,0.927
		c-0.541,0.218-1.127,0.323-1.763,0.323c-0.681,0-1.311-0.117-1.889-0.358c-0.582-0.241-1.084-0.585-1.507-1.028
		c-0.426-0.443-0.759-0.979-0.998-1.601c-0.24-0.622-0.36-1.317-0.36-2.088c0-0.831,0.136-1.552,0.41-2.165
		c0.272-0.617,0.636-1.122,1.087-1.528c0.451-0.399,0.969-0.7,1.558-0.899c0.587-0.2,1.199-0.297,1.834-0.297
		c0.68,0,1.33,0.104,1.946,0.315c0.617,0.214,1.159,0.5,1.624,0.864l-0.843,1.447c-0.376-0.313-0.792-0.551-1.246-0.717
		c-0.456-0.164-0.934-0.248-1.437-0.248c-0.473,0-0.91,0.074-1.313,0.224s-0.753,0.364-1.053,0.647
		c-0.302,0.284-0.535,0.631-0.705,1.041c-0.17,0.411-0.255,0.879-0.255,1.402c0,0.482,0.073,0.927,0.223,1.334
		c0.146,0.408,0.36,0.758,0.637,1.055c0.277,0.297,0.612,0.527,1.003,0.691c0.392,0.164,0.832,0.247,1.318,0.247
		c0.429,0,0.816-0.063,1.165-0.188c0.347-0.13,0.645-0.311,0.892-0.549c0.247-0.234,0.443-0.515,0.587-0.837
		c0.145-0.321,0.229-0.683,0.248-1.08H84.96v-1.37h3.978V54.967z"/>
	<path fill="#C9AE62" d="M92.928,50.815l1.982,6.043l2.915-6.17h0.166l2.738,6.17l2.119-6.043h1.585l-3.425,9.842h-0.166
		l-2.98-6.858l-3.16,6.858h-0.154l-3.281-9.842H92.928z"/>
	<path fill="#C9AE62" d="M110.875,50.688l4.489,9.842H113.6l-0.92-2.096h-3.88l-0.921,2.096h-1.686l4.489-9.842H110.875z
		 M109.347,57.202h2.803l-1.397-3.188L109.347,57.202z"/>
	<path fill="#C9AE62" d="M121.294,50.815c0.844,0,1.557,0.14,2.141,0.418c0.584,0.281,1.057,0.646,1.424,1.102
		c0.365,0.452,0.631,0.965,0.799,1.541c0.164,0.578,0.248,1.165,0.248,1.768c0,0.584-0.08,1.168-0.244,1.752
		c-0.162,0.584-0.424,1.106-0.785,1.574c-0.361,0.467-0.84,0.842-1.426,1.131c-0.588,0.289-1.305,0.432-2.154,0.432h-3.359v-9.717
		H121.294z M119.532,58.867h1.793c0.533,0,0.984-0.083,1.359-0.246c0.373-0.165,0.68-0.392,0.918-0.675
		c0.24-0.285,0.418-0.621,0.527-1.014c0.109-0.389,0.166-0.812,0.166-1.27c0-0.449-0.055-0.865-0.162-1.25
		c-0.107-0.387-0.279-0.723-0.521-1.014c-0.24-0.285-0.549-0.51-0.926-0.672s-0.832-0.242-1.363-0.242h-1.795v6.381L119.532,58.867
		L119.532,58.867z"/>
	<path fill="#C9AE62" d="M132.81,50.688l4.49,9.842h-1.764l-0.92-2.096h-3.879l-0.921,2.096h-1.686l4.489-9.842H132.81z
		 M131.283,57.202h2.805l-1.396-3.188L131.283,57.202z"/>
	<path fill="#C9AE62" d="M143.97,50.815c0.451,0,0.848,0.076,1.184,0.227c0.338,0.152,0.613,0.359,0.824,0.617
		c0.213,0.26,0.375,0.556,0.482,0.896c0.105,0.341,0.162,0.693,0.162,1.067c0,0.559-0.117,1.072-0.355,1.543
		c-0.234,0.469-0.613,0.814-1.131,1.035l2.404,4.33h-1.793l-2.221-4.114h-2.061v4.114h-1.598v-9.715H143.97z M141.467,55.135h2.238
		c0.459,0,0.793-0.133,1-0.394c0.203-0.264,0.311-0.572,0.311-0.932c0-0.36-0.105-0.677-0.316-0.938
		c-0.211-0.263-0.543-0.394-0.992-0.394h-2.238v2.657H141.467z"/>
</g>
<g>
	<path fill="#C9AE62" d="M41.833,34.156c0.572,0,1.063,0.072,1.472,0.216c0.408,0.145,0.742,0.338,1.004,0.583
		c0.261,0.247,0.452,0.528,0.572,0.853c0.12,0.321,0.182,0.655,0.182,1.002c0,0.492-0.105,0.89-0.32,1.195
		c-0.213,0.305-0.483,0.541-0.813,0.711c0.433,0.212,0.793,0.518,1.08,0.915s0.431,0.876,0.431,1.437
		c0,0.373-0.072,0.729-0.215,1.066s-0.354,0.639-0.625,0.896c-0.274,0.258-0.615,0.462-1.023,0.617
		c-0.406,0.151-0.872,0.228-1.393,0.228h-5.367v-9.717h5.017V34.156z M38.694,38.22h3.19c0.442,0,0.78-0.103,1.01-0.311
		c0.229-0.209,0.345-0.481,0.345-0.819c0-0.347-0.129-0.646-0.385-0.896c-0.256-0.248-0.645-0.373-1.166-0.373h-2.997v2.398H38.694z
		 M38.694,42.21h3.229c0.521,0,0.926-0.139,1.218-0.414c0.291-0.275,0.437-0.617,0.437-1.021c0-0.408-0.142-0.746-0.429-1.018
		c-0.287-0.27-0.664-0.404-1.134-0.404h-3.321V42.21z"/>
	<path fill="#C9AE62" d="M53.982,34.156c0.53,0,0.993,0.076,1.388,0.229c0.396,0.153,0.72,0.358,0.972,0.616
		c0.252,0.259,0.44,0.559,0.565,0.896c0.127,0.336,0.189,0.692,0.189,1.066c0,0.559-0.139,1.074-0.418,1.543
		c-0.277,0.469-0.721,0.814-1.329,1.035l2.825,4.332h-2.108l-2.604-4.117h-2.422v4.117h-1.875v-9.718H53.982L53.982,34.156z
		 M51.04,38.476h2.631c0.539,0,0.929-0.133,1.173-0.394c0.245-0.263,0.365-0.571,0.365-0.927c0-0.363-0.124-0.678-0.371-0.94
		c-0.247-0.261-0.637-0.394-1.165-0.394h-2.632L51.04,38.476L51.04,38.476z"/>
	<path fill="#C9AE62" d="M66.489,34.029c0.876,0,1.656,0.14,2.336,0.42c0.684,0.278,1.254,0.653,1.72,1.118
		c0.465,0.463,0.815,0.998,1.055,1.6c0.238,0.602,0.359,1.219,0.359,1.855c0,0.633-0.121,1.25-0.359,1.847
		c-0.237,0.597-0.59,1.129-1.055,1.596c-0.466,0.465-1.036,0.837-1.72,1.118c-0.682,0.277-1.461,0.418-2.336,0.418
		c-0.887,0-1.67-0.141-2.352-0.423c-0.685-0.285-1.254-0.66-1.714-1.124c-0.46-0.465-0.81-1-1.042-1.602
		c-0.234-0.601-0.354-1.213-0.354-1.84c0-0.636,0.119-1.253,0.359-1.854c0.24-0.603,0.592-1.134,1.057-1.595s1.035-0.832,1.711-1.11
		C64.834,34.168,65.61,34.029,66.489,34.029z M66.5,35.706c-0.549,0-1.041,0.083-1.484,0.248s-0.814,0.396-1.127,0.691
		c-0.309,0.295-0.549,0.646-0.716,1.047c-0.169,0.402-0.254,0.841-0.254,1.314c0,0.475,0.085,0.915,0.254,1.322
		c0.167,0.406,0.407,0.757,0.716,1.054c0.309,0.295,0.684,0.529,1.127,0.699c0.443,0.168,0.938,0.253,1.484,0.253
		c0.538,0,1.028-0.083,1.472-0.247s0.816-0.394,1.133-0.687c0.313-0.293,0.555-0.643,0.725-1.047
		c0.167-0.405,0.255-0.852,0.255-1.334c0-0.483-0.088-0.925-0.255-1.328c-0.17-0.401-0.411-0.75-0.725-1.047
		c-0.312-0.295-0.688-0.524-1.133-0.69C67.528,35.789,67.038,35.706,66.5,35.706z"/>
	<path fill="#C9AE62" d="M79.939,34.029l5.274,9.843h-2.07l-1.081-2.096h-4.558l-1.082,2.096h-1.979l5.272-9.843H79.939z
		 M78.143,40.544h3.295l-1.643-3.188L78.143,40.544z"/>
	<path fill="#C9AE62" d="M92.468,34.156c0.991,0,1.827,0.139,2.515,0.42c0.688,0.278,1.242,0.646,1.672,1.098
		c0.431,0.454,0.744,0.968,0.939,1.544c0.192,0.576,0.292,1.165,0.292,1.768c0,0.582-0.095,1.166-0.284,1.752
		c-0.193,0.584-0.502,1.107-0.927,1.576c-0.425,0.465-0.983,0.842-1.674,1.129c-0.689,0.289-1.533,0.433-2.533,0.433h-3.946v-9.718
		L92.468,34.156L92.468,34.156z M90.398,42.21h2.111c0.624,0,1.156-0.084,1.596-0.248c0.438-0.165,0.799-0.391,1.08-0.674
		s0.488-0.62,0.619-1.01c0.131-0.389,0.196-0.814,0.196-1.271c0-0.447-0.063-0.865-0.188-1.25c-0.127-0.385-0.33-0.722-0.615-1.01
		c-0.28-0.288-0.642-0.512-1.085-0.673c-0.442-0.162-0.978-0.241-1.603-0.241H90.4v6.377H90.398z"/>
	<path fill="#C9AE62" d="M102.393,34.156l2.332,6.046l3.425-6.173h0.195l3.216,6.173l2.489-6.046h1.859l-4.021,9.843h-0.195
		l-3.504-6.857l-3.711,6.857h-0.184l-3.854-9.843H102.393z"/>
	<path fill="#C9AE62" d="M122.972,34.029l5.271,9.843h-2.066l-1.082-2.096h-4.559l-1.08,2.096h-1.98l5.275-9.843H122.972z
		 M121.176,40.544h3.293l-1.643-3.188L121.176,40.544z"/>
	<path fill="#C9AE62" d="M131.553,34.156l3.244,3.557l3.293-3.557h2.082l-4.428,4.838v4.877h-1.887v-4.851l-4.47-4.866h2.165V34.156
		z"/>
	<path fill="#C9AE62" d="M158.204,36.772c-0.436-0.295-0.91-0.552-1.43-0.764c-0.516-0.211-1.102-0.316-1.764-0.316
		c-0.51,0-0.99,0.07-1.439,0.215c-0.445,0.145-0.838,0.357-1.17,0.636c-0.336,0.28-0.598,0.625-0.791,1.037
		c-0.188,0.409-0.285,0.881-0.285,1.415c0,0.552,0.1,1.033,0.295,1.447c0.193,0.416,0.459,0.764,0.793,1.041
		c0.336,0.281,0.725,0.492,1.168,0.638c0.439,0.144,0.91,0.215,1.404,0.215c0.668,0,1.279-0.125,1.836-0.373
		c0.555-0.25,0.979-0.603,1.264-1.062l1.422,1.055c-0.229,0.348-0.502,0.65-0.822,0.908c-0.318,0.259-0.676,0.473-1.066,0.642
		s-0.811,0.294-1.252,0.375c-0.441,0.08-0.889,0.12-1.342,0.12c-0.799,0-1.539-0.12-2.227-0.361
		c-0.686-0.24-1.277-0.582-1.775-1.022c-0.502-0.44-0.893-0.972-1.174-1.595c-0.283-0.623-0.424-1.314-0.424-2.078
		c0-0.762,0.141-1.445,0.424-2.053c0.281-0.604,0.672-1.119,1.174-1.543c0.496-0.423,1.092-0.75,1.781-0.979
		c0.689-0.229,1.445-0.343,2.26-0.343c0.885,0,1.693,0.125,2.422,0.375c0.73,0.249,1.369,0.577,1.916,0.984L158.204,36.772z"/>
	<path fill="#C9AE62" d="M165.141,34.156v9.716h-1.875v-9.716H165.141z"/>
	<path fill="#C9AE62" d="M177.243,34.156v1.663h-3.336v8.053h-1.9v-8.053H168.7v-1.663H177.243z"/>
	<path fill="#C9AE62" d="M181.997,34.156l3.242,3.557l3.293-3.557h2.086l-4.428,4.838v4.877H184.3v-4.851l-4.467-4.866h2.164V34.156
		z"/>
</g>
</svg>
