<?xml version="1.0" encoding="utf-8"?>
<!-- Generator: Adobe Illustrator 16.0.0, SVG Export Plug-In . SVG Version: 6.00 Build 0)  -->
<!DOCTYPE svg PUBLIC "-//W3C//DTD SVG 1.1//EN" "http://www.w3.org/Graphics/SVG/1.1/DTD/svg11.dtd">
<svg version="1.1" id="Layer_1" xmlns:v="https://vecta.io/nano"
	 xmlns="http://www.w3.org/2000/svg" xmlns:xlink="http://www.w3.org/1999/xlink" x="0px" y="0px" width="153.801px"
	 height="89.083px" viewBox="0 0 153.801 89.083" enable-background="new 0 0 153.801 89.083" xml:space="preserve">
<path fill="#C9AE62" d="M100.884,21.202V8.506h-6.047h-6.648l-8.57-8.57l-2.717,2.717l-2.717-2.717l-8.57,8.57h-5.646h-6.049V20.2
	l-8.669,8.669l8.668,8.668v11.888h6.048h5.84l8.377,8.379l2.717-2.72l2.718,2.72l8.378-8.379h6.841h6.046v-12.89l7.668-7.667
	L100.884,21.202z M53.918,30.801l-1.955-1.956l1.955-1.955V30.801z M53.918,25.634l-3.233,3.235l3.233,3.234v4.129l-7.388-7.387
	l7.388-7.388V25.634z M59.966,48.5h-5.16V38.424l5.16,5.16V48.5z M59.966,42.279l-5.16-5.16V32.99l5.16,5.159V42.279z
	 M59.966,36.848l-5.16-5.16v-5.686l5.16-5.16V36.848z M59.966,19.587l-5.16,5.16V20.57l5.16-5.16V19.587z M59.966,14.153l-5.16,5.16
	V9.415h5.16V14.153z M79.603,1.206l7.3,7.3h-4.147L77.529,3.28L79.603,1.206z M81.47,8.506h-9.168l4.584-4.584L81.47,8.506z
	 M74.168,1.206l2.089,2.089l-5.211,5.211h-4.178L74.168,1.206z M60.855,9.415h3.852l-3.852,3.852V9.415z M60.855,14.522l5.105-5.107
	h4.18L60.855,18.7V14.522z M60.855,48.5v-4.029l4.029,4.029H60.855z M60.855,43.166v-4.129l9.463,9.463h-4.129L60.855,43.166z
	 M74.183,56.496l-7.072-7.071h4.129l5.008,5.008L74.183,56.496z M76.9,53.779l-4.356-4.354h8.712L76.9,53.779z M79.615,56.496
	l-2.063-2.063l5.01-5.01h4.127L79.615,56.496z M93.913,48.5h-4.994l4.994-4.994V48.5z M93.913,42.199L87.611,48.5h-4.125
	l10.428-10.426L93.913,42.199L93.913,42.199z M93.913,36.766L82.177,48.5H71.62L60.853,37.734V19.956L71.394,9.415h10.983
	L93.912,20.95L93.913,36.766L93.913,36.766z M93.913,19.664L83.664,9.415h4.146l6.103,6.102V19.664z M93.913,14.23l-4.815-4.815
	h4.815V14.23z M99.959,48.5h-5.123v-5.918l5.123-5.123V48.5z M99.959,36.15l-5.123,5.123v-4.125l5.123-5.123V36.15z M99.959,30.719
	l-5.123,5.123V21.875l5.123,5.123V30.719z M99.959,25.71l-5.123-5.122v-4.147l5.123,5.123V25.71z M99.959,20.278l-5.123-5.123v-5.74
	h5.123V20.278z M100.884,27.921l0.938,0.937l-0.938,0.938V27.921z M100.884,31.103l2.233-2.234l-2.233-2.234v-4.146l6.369,6.37
	l-6.369,6.37V31.103z"/>
<g>
	<g>
		<path fill="#5B5B5B" d="M52.12,83.456c0.037,0.129,0.063,0.271,0.083,0.436c0.02,0.16,0.029,0.352,0.029,0.57
			c0,0.729-0.11,1.383-0.327,1.961c-0.218,0.576-0.522,1.07-0.915,1.473s-0.859,0.713-1.396,0.926
			c-0.541,0.219-1.127,0.324-1.764,0.324c-0.682,0-1.311-0.117-1.889-0.359c-0.582-0.24-1.084-0.584-1.508-1.027
			c-0.426-0.443-0.758-0.979-0.998-1.602c-0.239-0.621-0.359-1.316-0.359-2.088c0-0.83,0.136-1.551,0.41-2.164
			c0.271-0.617,0.636-1.123,1.087-1.527c0.45-0.4,0.969-0.701,1.558-0.9c0.588-0.199,1.199-0.297,1.834-0.297
			c0.68,0,1.33,0.104,1.946,0.314c0.617,0.215,1.159,0.5,1.624,0.865l-0.844,1.447c-0.375-0.314-0.791-0.551-1.245-0.717
			c-0.456-0.164-0.935-0.248-1.437-0.248c-0.474,0-0.91,0.072-1.313,0.223s-0.753,0.365-1.054,0.648s-0.535,0.631-0.705,1.041
			s-0.254,0.879-0.254,1.4c0,0.482,0.072,0.928,0.223,1.334c0.146,0.408,0.359,0.758,0.637,1.057
			c0.277,0.297,0.612,0.525,1.003,0.689c0.392,0.164,0.832,0.248,1.318,0.248c0.429,0,0.815-0.063,1.165-0.188
			c0.347-0.131,0.645-0.313,0.892-0.551c0.247-0.232,0.443-0.514,0.587-0.836c0.146-0.32,0.229-0.684,0.248-1.08h-2.613v-1.371
			h3.979L52.12,83.456L52.12,83.456z"/>
		<path fill="#5B5B5B" d="M56.111,79.303l1.982,6.043l2.914-6.17h0.166l2.738,6.17l2.119-6.043h1.585l-3.425,9.842h-0.166
			l-2.98-6.857l-3.16,6.857H57.73l-3.28-9.842H56.111z"/>
		<path fill="#5B5B5B" d="M74.058,79.176l4.488,9.842h-1.764l-0.92-2.096h-3.881l-0.92,2.096h-1.687l4.489-9.842H74.058z
			 M72.53,85.69h2.803l-1.397-3.188L72.53,85.69z"/>
		<path fill="#5B5B5B" d="M84.476,79.303c0.845,0,1.558,0.141,2.142,0.418c0.584,0.281,1.058,0.646,1.424,1.102
			c0.365,0.453,0.632,0.965,0.8,1.541c0.163,0.578,0.248,1.166,0.248,1.77c0,0.584-0.08,1.168-0.244,1.752
			c-0.162,0.584-0.425,1.105-0.785,1.572c-0.361,0.469-0.84,0.844-1.426,1.133c-0.589,0.289-1.306,0.432-2.154,0.432h-3.359v-9.717
			h3.355V79.303z M82.714,87.356h1.793c0.533,0,0.984-0.084,1.359-0.246c0.373-0.166,0.68-0.393,0.918-0.676
			c0.24-0.285,0.418-0.621,0.527-1.014c0.108-0.389,0.166-0.813,0.166-1.27c0-0.449-0.055-0.865-0.162-1.25
			c-0.107-0.387-0.279-0.723-0.521-1.014c-0.24-0.285-0.549-0.51-0.926-0.672s-0.832-0.242-1.363-0.242H82.71v6.381L82.714,87.356
			L82.714,87.356z"/>
		<path fill="#5B5B5B" d="M95.993,79.176l4.489,9.842h-1.764l-0.92-2.096h-3.879l-0.921,2.096h-1.687l4.49-9.842H95.993z
			 M94.466,85.69h2.805l-1.396-3.188L94.466,85.69z"/>
		<path fill="#5B5B5B" d="M107.153,79.303c0.45,0,0.848,0.076,1.184,0.227c0.339,0.152,0.613,0.359,0.824,0.617
			c0.213,0.26,0.375,0.557,0.481,0.896c0.105,0.342,0.162,0.693,0.162,1.066c0,0.561-0.117,1.072-0.354,1.543
			c-0.233,0.469-0.613,0.814-1.131,1.035l2.403,4.33h-1.793l-2.221-4.113h-2.061v4.113h-1.598v-9.715H107.153z M104.65,83.624h2.238
			c0.459,0,0.793-0.133,1-0.395c0.203-0.264,0.311-0.572,0.311-0.932s-0.105-0.678-0.316-0.938
			c-0.211-0.264-0.543-0.395-0.992-0.395h-2.237v2.656h-0.003V83.624z"/>
	</g>
</g>
<g>
	<g>
		<path fill="#070707" d="M5.016,62.645c0.572,0,1.063,0.072,1.472,0.216c0.408,0.146,0.742,0.338,1.004,0.583
			c0.261,0.247,0.452,0.527,0.572,0.854c0.12,0.32,0.182,0.654,0.182,1.002c0,0.491-0.105,0.89-0.32,1.194
			c-0.213,0.306-0.483,0.541-0.813,0.711c0.433,0.212,0.793,0.519,1.08,0.915c0.287,0.396,0.431,0.876,0.431,1.438
			c0,0.373-0.072,0.729-0.215,1.065s-0.354,0.64-0.625,0.896c-0.274,0.259-0.615,0.463-1.023,0.617
			c-0.406,0.151-0.872,0.229-1.393,0.229H0v-9.717h5.017v-0.002H5.016z M1.876,66.708h3.19c0.442,0,0.78-0.103,1.01-0.311
			c0.229-0.209,0.345-0.481,0.345-0.819c0-0.347-0.129-0.646-0.385-0.896c-0.256-0.248-0.645-0.373-1.166-0.373H1.874v2.398
			L1.876,66.708L1.876,66.708z M1.876,70.699h3.229c0.521,0,0.926-0.14,1.218-0.414c0.291-0.274,0.437-0.616,0.437-1.021
			c0-0.408-0.142-0.746-0.429-1.019c-0.287-0.271-0.664-0.403-1.134-0.403H1.876V70.699z"/>
		<path fill="#070707" d="M17.165,62.645c0.53,0,0.993,0.076,1.388,0.229c0.396,0.153,0.72,0.358,0.972,0.616
			c0.252,0.259,0.44,0.56,0.565,0.896c0.127,0.336,0.189,0.692,0.189,1.066c0,0.559-0.139,1.074-0.418,1.543
			c-0.277,0.469-0.721,0.814-1.329,1.035l2.825,4.332h-2.108l-2.604-4.117h-2.422v4.117h-1.875v-9.718L17.165,62.645L17.165,62.645z
			 M14.223,66.965h2.631c0.539,0,0.929-0.134,1.173-0.395c0.245-0.264,0.365-0.571,0.365-0.927c0-0.363-0.124-0.679-0.371-0.94
			c-0.247-0.261-0.637-0.395-1.165-0.395h-2.632L14.223,66.965L14.223,66.965z"/>
		<path fill="#070707" d="M29.671,62.518c0.876,0,1.656,0.14,2.336,0.42c0.684,0.277,1.254,0.652,1.72,1.117
			c0.465,0.464,0.815,0.998,1.055,1.601c0.238,0.603,0.359,1.219,0.359,1.854c0,0.633-0.121,1.25-0.359,1.848
			c-0.237,0.597-0.59,1.129-1.055,1.596c-0.466,0.465-1.036,0.837-1.72,1.118c-0.682,0.276-1.461,0.418-2.336,0.418
			c-0.887,0-1.67-0.142-2.352-0.423c-0.685-0.285-1.254-0.66-1.714-1.124c-0.46-0.465-0.81-1-1.042-1.603
			c-0.234-0.601-0.354-1.213-0.354-1.84c0-0.636,0.119-1.253,0.359-1.854c0.24-0.604,0.592-1.135,1.057-1.596
			c0.465-0.461,1.035-0.832,1.711-1.109C28.017,62.657,28.792,62.518,29.671,62.518z M29.683,64.195
			c-0.549,0-1.041,0.083-1.484,0.248s-0.814,0.396-1.127,0.69c-0.309,0.295-0.549,0.646-0.716,1.047
			c-0.169,0.402-0.254,0.842-0.254,1.314c0,0.475,0.085,0.915,0.254,1.322c0.167,0.406,0.407,0.757,0.716,1.054
			c0.309,0.295,0.684,0.529,1.127,0.699c0.443,0.168,0.938,0.253,1.484,0.253c0.538,0,1.028-0.083,1.472-0.247
			c0.444-0.164,0.816-0.394,1.133-0.687c0.313-0.293,0.555-0.644,0.725-1.047c0.167-0.405,0.255-0.853,0.255-1.334
			c0-0.483-0.088-0.926-0.255-1.328c-0.17-0.401-0.411-0.75-0.725-1.047c-0.312-0.295-0.688-0.524-1.133-0.69
			C30.71,64.278,30.221,64.195,29.683,64.195z"/>
		<path fill="#070707" d="M43.122,62.518l5.274,9.843h-2.07l-1.081-2.097h-4.558l-1.083,2.097h-1.979l5.272-9.843H43.122z
			 M41.326,69.033h3.295l-1.643-3.188L41.326,69.033z"/>
		<path fill="#070707" d="M55.65,62.645c0.992,0,1.828,0.139,2.516,0.42c0.688,0.277,1.242,0.646,1.672,1.098
			c0.432,0.454,0.744,0.969,0.939,1.544c0.191,0.576,0.292,1.165,0.292,1.769c0,0.582-0.095,1.166-0.284,1.752
			c-0.193,0.584-0.502,1.106-0.928,1.576c-0.424,0.465-0.982,0.842-1.674,1.129c-0.688,0.289-1.533,0.433-2.533,0.433h-3.945v-9.718
			L55.65,62.645L55.65,62.645z M53.581,70.699h2.11c0.625,0,1.156-0.084,1.597-0.248c0.438-0.165,0.799-0.392,1.08-0.674
			c0.28-0.283,0.487-0.62,0.619-1.011c0.131-0.389,0.196-0.813,0.196-1.271c0-0.446-0.063-0.864-0.188-1.25
			c-0.127-0.385-0.33-0.722-0.615-1.01c-0.28-0.288-0.642-0.513-1.085-0.673c-0.441-0.162-0.979-0.241-1.604-0.241h-2.108v6.377
			H53.581z"/>
		<path fill="#070707" d="M65.576,62.645l2.332,6.046l3.425-6.173h0.195l3.216,6.173l2.488-6.046h1.859l-4.021,9.843h-0.195
			l-3.504-6.856l-3.711,6.856h-0.185l-3.854-9.843H65.576z"/>
		<path fill="#070707" d="M86.155,62.518l5.271,9.843h-2.066l-1.081-2.097h-4.56l-1.08,2.097h-1.979l5.274-9.843H86.155z
			 M84.359,69.033h3.293l-1.643-3.188L84.359,69.033z"/>
		<path fill="#070707" d="M94.736,62.645l3.244,3.557l3.293-3.557h2.082l-4.428,4.838v4.877H97.04v-4.852l-4.47-4.865h2.164v0.002
			H94.736z"/>
		<path fill="#070707" d="M121.386,65.26c-0.436-0.295-0.91-0.552-1.43-0.764c-0.516-0.211-1.102-0.316-1.764-0.316
			c-0.51,0-0.99,0.07-1.439,0.216c-0.445,0.145-0.838,0.356-1.17,0.636c-0.336,0.28-0.598,0.625-0.791,1.037
			c-0.188,0.409-0.285,0.881-0.285,1.415c0,0.552,0.1,1.032,0.295,1.446c0.193,0.416,0.459,0.765,0.793,1.041
			c0.336,0.281,0.726,0.492,1.168,0.639c0.439,0.145,0.91,0.215,1.404,0.215c0.668,0,1.279-0.125,1.836-0.373
			c0.555-0.25,0.979-0.604,1.264-1.063l1.422,1.056c-0.229,0.349-0.502,0.649-0.821,0.908c-0.317,0.259-0.677,0.473-1.065,0.642
			c-0.391,0.169-0.812,0.294-1.252,0.375c-0.441,0.08-0.89,0.12-1.343,0.12c-0.799,0-1.539-0.12-2.228-0.36
			c-0.686-0.24-1.276-0.582-1.774-1.022c-0.502-0.44-0.894-0.972-1.174-1.595c-0.283-0.623-0.425-1.314-0.425-2.078
			c0-0.762,0.142-1.445,0.425-2.053c0.28-0.604,0.672-1.119,1.174-1.543c0.496-0.424,1.093-0.75,1.781-0.979s1.444-0.343,2.26-0.343
			c0.886,0,1.692,0.125,2.422,0.375c0.729,0.248,1.369,0.576,1.916,0.983L121.386,65.26z"/>
		<path fill="#070707" d="M128.324,62.645v9.716h-1.875v-9.716H128.324z"/>
		<path fill="#070707" d="M140.425,62.645v1.662h-3.336v8.054h-1.9v-8.054h-3.307v-1.662H140.425z"/>
		<path fill="#070707" d="M145.179,62.645l3.242,3.557l3.293-3.557h2.086l-4.428,4.838v4.877h-1.891v-4.852l-4.467-4.865h2.164
			V62.645L145.179,62.645z"/>
	</g>
</g>
</svg>
